<svg width="101" height="24" viewBox="0 0 101 24" fill="none" xmlns="http://www.w3.org/2000/svg">
<path fill-rule="evenodd" clip-rule="evenodd" d="M11.956 21.7826C6.5889 21.7826 2.1958 17.3895 2.1958 11.9444C2.1958 6.58707 6.5889 2.19397 11.956 2.19397C17.3913 2.19397 21.7844 6.58707 21.7844 11.9444C21.7844 17.3895 17.3913 21.7826 11.956 21.7826ZM11.956 17.6817C15.151 17.6817 17.6836 15.1492 17.6836 11.9444C17.6836 8.81766 15.151 6.28507 11.956 6.28507C8.8195 6.28507 6.2869 8.81766 6.2869 11.9444C6.2869 15.1492 8.8195 17.6817 11.956 17.6817Z" fill="#166FC0"/>
<path fill-rule="evenodd" clip-rule="evenodd" d="M72.1439 21.7826C66.7769 21.7826 62.3838 17.3895 62.3838 11.9444C62.3838 6.58707 66.7769 2.19397 72.1439 2.19397C77.5793 2.19397 81.9724 6.58707 81.9724 11.9444C81.9724 17.3895 77.5793 21.7826 72.1439 21.7826ZM72.1439 17.6817C75.339 17.6817 77.8716 15.1492 77.8716 11.9444C77.8716 8.81766 75.339 6.28507 72.1439 6.28507C69.0075 6.28507 66.4749 8.81766 66.4749 11.9444C66.4749 15.1492 69.0075 17.6817 72.1439 17.6817Z" fill="#166FC0"/>
<path fill-rule="evenodd" clip-rule="evenodd" d="M22.9048 2.78812V21.3345H26.9959V6.21686H31.5448V21.3345H35.6359V6.21686H37.2041C38.8406 6.21686 40.1069 7.48314 40.1069 9.04171V21.3345H44.2077V9.18782C44.2077 5.54478 41.305 2.63226 37.6523 2.63226H27.0738C25.6614 2.63226 24.2392 2.63226 22.9048 2.78812Z" fill="#166FC0"/>
<path fill-rule="evenodd" clip-rule="evenodd" d="M83.0928 2.78812V21.3345H87.1839V6.21686H91.8108C93.3693 6.21686 94.7134 7.48314 94.7134 9.04171V21.3345H98.8046V9.18782C98.8046 5.54478 95.9019 2.63226 92.2491 2.63226H87.1839C85.8494 2.63226 84.4272 2.63226 83.0928 2.78812Z" fill="#166FC0"/>
<path fill-rule="evenodd" clip-rule="evenodd" d="M45.9219 2.78812V21.3345H50.013V6.21686H54.8541C56.5003 6.21686 57.7666 7.48314 57.7666 9.04171C57.7666 10.6781 56.5003 11.9444 54.8541 11.9444H51.3572L57.6887 21.3345H62.7539L58.1367 14.5549C60.3674 13.7367 61.8577 11.5743 61.8577 9.04171C61.8577 5.54478 59.0329 2.63226 55.4483 2.63226H50.013C48.6006 2.63226 47.2564 2.63226 45.9219 2.78812Z" fill="#166FC0"/>
</svg>
